<svg width="1915" height="600" viewBox="0 0 1915 600" fill="none" xmlns="http://www.w3.org/2000/svg">
<path d="M437.5 138.5V473H334.5V344H135.5V473H31.5V138.5H135.5V257H334.5V138.5H437.5ZM935.727 138.5V327C935.727 428 866.227 478.5 727.227 478.5C566.227 478.5 496.727 428 496.727 327V138.5H599.727V327C599.727 376.5 620.727 392.5 727.227 392.5C806.727 392.5 831.727 374 831.727 327V138.5H935.727ZM1122.39 272H1304.39C1385.89 272 1429.89 302.5 1429.89 363.5C1429.89 432 1388.39 473 1286.39 473H974.891L1041.39 387H1294.39C1318.89 387 1329.89 380 1329.89 362.5C1329.89 345.5 1318.89 338.5 1294.39 338.5H1112.39C1026.39 338.5 986.891 300 986.891 242.5C986.891 179.5 1028.89 138.5 1130.39 138.5H1420.89L1354.39 225.5H1122.39C1098.39 225.5 1086.89 231.5 1086.89 248.5C1086.89 265.5 1098.39 272 1122.39 272ZM1881.84 138.5V473H1778.84V344H1579.84V473H1475.84V138.5H1579.84V257H1778.84V138.5H1881.84Z" fill="white"/>
</svg>
